<?xml version="1.0" encoding="UTF-8" standalone="no"?>
<!DOCTYPE svg PUBLIC "-//W3C//DTD SVG 1.1//EN" "http://www.w3.org/Graphics/SVG/1.1/DTD/svg11.dtd">
<svg width="100%" height="100%" viewBox="0 0 1920 200" version="1.1" xmlns="http://www.w3.org/2000/svg" xmlns:xlink="http://www.w3.org/1999/xlink" xml:space="preserve" xmlns:serif="http://www.serif.com/" style="fill-rule:evenodd;clip-rule:evenodd;stroke-linejoin:round;stroke-miterlimit:2;">
    <g>
        <g>
            <g opacity="0.4">
                <g transform="matrix(0.731055,0.682318,-0.731055,0.682318,1591.78,28.8806)">
                    <rect x="0" y="0" width="3.117" height="11.83" style="fill:rgb(255,57,0);"/>
                </g>
                <g transform="matrix(0.731055,-0.682318,0.731055,0.682318,1583.04,30.97)">
                    <rect x="0" y="0" width="3.117" height="11.842" style="fill:rgb(255,57,0);"/>
                </g>
            </g>
            <g opacity="0.2">
                <g transform="matrix(0.706637,-0.707577,0.706637,0.707577,1822.04,137.472)">
                    <rect x="0" y="0" width="6.468" height="24.548" style="fill:rgb(255,57,0);"/>
                </g>
                <g transform="matrix(-0.706637,-0.707577,0.706637,-0.707577,1826.53,155.029)">
                    <rect x="0" y="0" width="6.468" height="24.574" style="fill:rgb(255,57,0);"/>
                </g>
            </g>
            <g opacity="0.5">
                <g transform="matrix(0.707107,-0.707107,0.707107,0.707107,88.9353,304.77)">
                    <rect x="412.358" y="45.031" width="5.371" height="20.384" style="fill:rgb(255,57,0);"/>
                </g>
                <g transform="matrix(-0.707107,-0.707107,0.707107,-0.707107,668.165,395.962)">
                    <rect x="416.089" y="59.6" width="5.371" height="20.406" style="fill:rgb(255,57,0);"/>
                </g>
            </g>
            <g opacity="0.3">
                <g transform="matrix(0.706636,-0.707577,0.706636,0.707577,1488.87,144.822)">
                    <rect x="0" y="0" width="1.391" height="5.28" style="fill:rgb(255,57,0);"/>
                </g>
                <g transform="matrix(-0.706636,-0.707577,0.706636,-0.707577,1489.83,148.598)">
                    <rect x="0" y="0" width="1.391" height="5.285" style="fill:rgb(255,57,0);"/>
                </g>
            </g>
            <g opacity="0.5">
                <g transform="matrix(0.707107,0.707107,-0.707107,0.707107,431.763,-881.263)">
                    <rect x="1279.66" y="80.552" width="4.082" height="15.492" style="fill:rgb(255,57,0);"/>
                </g>
                <g transform="matrix(0.707107,-0.707107,0.707107,0.707107,312.594,921.445)">
                    <rect x="1268.58" y="83.388" width="4.082" height="15.508" style="fill:rgb(255,57,0);"/>
                </g>
            </g>
            <g opacity="0.2">
                <g transform="matrix(-0.706637,-0.707577,-0.706637,0.707577,161.044,119.472)">
                    <rect x="0" y="0" width="6.468" height="24.548" style="fill:rgb(255,57,0);"/>
                </g>
                <g transform="matrix(0.706637,-0.707577,-0.706637,-0.707577,156.554,137.029)">
                    <rect x="0" y="0" width="6.468" height="24.574" style="fill:rgb(255,57,0);"/>
                </g>
            </g>
            <g opacity="0.3">
                <g transform="matrix(-0.706636,-0.707577,-0.706636,0.707577,485.085,121.49)">
                    <rect x="0" y="0" width="1.391" height="5.28" style="fill:rgb(255,57,0);"/>
                </g>
                <g transform="matrix(0.706636,-0.707577,-0.706636,-0.707577,484.119,125.266)">
                    <rect x="0" y="0" width="1.391" height="5.285" style="fill:rgb(255,57,0);"/>
                </g>
            </g>
            <g opacity="0.3">
                <g transform="matrix(0.706636,-0.707577,-0.706636,-0.707577,672.629,62.8186)">
                    <rect x="0" y="0" width="3.179" height="12.066" style="fill:rgb(255,57,0);"/>
                </g>
                <g transform="matrix(0.706636,0.707578,0.706636,-0.707577,664.012,60.6085)">
                    <rect x="0" y="0" width="3.179" height="12.079" style="fill:rgb(255,57,0);"/>
                </g>
            </g>
        </g>
    </g>
</svg>
